<?xml version="1.0" encoding="utf-8"?>
<!-- Generator: Adobe Illustrator 25.4.1, SVG Export Plug-In . SVG Version: 6.00 Build 0)  -->
<svg version="1.1" id="레이어_1" xmlns="http://www.w3.org/2000/svg" xmlns:xlink="http://www.w3.org/1999/xlink" x="0px"
	 y="0px" viewBox="0 0 22 21.49" style="enable-background:new 0 0 22 21.49;" xml:space="preserve">
<style type="text/css">
	.st0{fill:#FFFFFF;}
	.st1{fill:#F9501C;}
</style>
<g>
	<rect x="11" y="2.59" class="st0" width="10.76" height="16.48"/>
	<g>
		<path class="st1" d="M21.98,2.97c0.05-0.57-0.39-1.01-0.96-0.95c-2.67-0.04-5.34,0-8.02-0.01V0H11.5C7.67,0.68,3.83,1.33,0,2
			c0,5.83,0,11.66,0,17.49c3.81,0.67,7.63,1.3,11.43,2h1.56v-2c2.5,0,5,0,7.5,0.01c0.42-0.02,0.9,0.01,1.26-0.25
			c0.29-0.45,0.22-1.01,0.24-1.51C21.97,12.82,22.02,7.89,21.98,2.97z M21.24,18.74h-8.25v-2h6.5v-1h-6.5V14.5h6.5v-1h-6.5v-1.25
			h6.5v-1h-6.5V10h6.5V9h-6.5V7.75h6.5v-1h-6.5V5.5h6.5v-1h-6.5V2.75h8.25V18.74z"/>
		<g>
			<path class="st0" d="M1.18,7.54l1.36-0.11c0.67-0.05,1.2,0.71,1.2,2.15c0,1.54-0.53,2.29-1.24,2.27l-0.4-0.01v2.33L1.18,14.1
				V7.54z M2.1,10.39l0.27,0c0.25,0,0.38-0.27,0.38-0.78c0-0.5-0.14-0.73-0.37-0.72L2.1,8.9V10.39z"/>
			<path class="st0" d="M4.16,7.3l1.44-0.11c1.2-0.1,1.81,1.32,1.81,3.53c0,2.33-0.65,3.82-1.82,3.73l-1.42-0.11V7.3z M5.23,12.84
				l0.27,0.01c0.48,0.02,0.68-0.58,0.68-2.11c0-1.4-0.17-1.98-0.66-1.96L5.23,8.79V12.84z"/>
			<path class="st0" d="M7.96,7L11,6.76V8.6L9.2,8.68v1.35L10.88,10v1.85L9.2,11.82v2.92l-1.25-0.1V7z"/>
		</g>
	</g>
</g>
</svg>
