<?xml version="1.0" encoding="utf-8"?>
<!-- Generator: Adobe Illustrator 25.4.1, SVG Export Plug-In . SVG Version: 6.00 Build 0)  -->
<svg version="1.1" id="레이어_1" xmlns="http://www.w3.org/2000/svg" xmlns:xlink="http://www.w3.org/1999/xlink" x="0px"
	 y="0px" viewBox="0 0 22 21.49" style="enable-background:new 0 0 22 21.49;" xml:space="preserve">
<style type="text/css">
	.st0{fill:#207245;}
	.st1{fill:#FFFFFF;}
</style>
<g>
	<path class="st0" d="M11.51,0h1.48v2c2.5,0,5,0,7.5-0.01c0.42,0.02,0.89-0.01,1.25,0.24c0.26,0.37,0.23,0.84,0.24,1.26
		c-0.01,4.34-0.01,8.67,0,13.01c-0.01,0.73,0.07,1.47-0.08,2.19c-0.1,0.52-0.72,0.53-1.14,0.55c-2.59,0.01-5.18,0-7.77,0v2.25h-1.55
		c-3.81-0.69-7.62-1.33-11.44-2V2C3.84,1.33,7.67,0.68,11.51,0z"/>
	<path class="st1" d="M12.99,2.75h8.25v15.74h-8.25v-1.5h2v-1.75h-2v-1h2V12.5h-2v-1h2V9.75h-2v-1h2V7h-2V6h2V4.25h-2V2.75z"/>
	<path class="st0" d="M15.99,4.25h3.5V6h-3.5V4.25z"/>
	<path class="st1" d="M7.4,6.59c0.56-0.04,1.13-0.07,1.7-0.1c-0.67,1.37-1.34,2.73-2.02,4.1c0.69,1.4,1.39,2.79,2.08,4.19
		c-0.6-0.03-1.2-0.07-1.8-0.11c-0.42-1.04-0.94-2.05-1.25-3.14c-0.34,1.01-0.82,1.97-1.21,2.97c-0.55-0.01-1.09-0.03-1.64-0.05
		c0.64-1.26,1.26-2.52,1.92-3.77C4.62,9.37,4,8.11,3.42,6.83c0.55-0.03,1.1-0.06,1.65-0.09c0.37,0.98,0.78,1.94,1.09,2.94
		C6.49,8.62,6.98,7.62,7.4,6.59L7.4,6.59z"/>
	<path class="st0" d="M15.99,7h3.5v1.75h-3.5V7z M15.99,9.75h3.5v1.75h-3.5V9.75z M15.99,12.5h3.5v1.75h-3.5V12.5z M15.99,15.24h3.5
		v1.75h-3.5V15.24z"/>
</g>
</svg>
