<?xml version="1.0" encoding="utf-8"?>
<!-- Generator: Adobe Illustrator 25.4.1, SVG Export Plug-In . SVG Version: 6.00 Build 0)  -->
<svg version="1.1" id="레이어_1" xmlns="http://www.w3.org/2000/svg" xmlns:xlink="http://www.w3.org/1999/xlink" x="0px"
	 y="0px" viewBox="0 0 200.8 20.8" style="enable-background:new 0 0 200.8 20.8;" xml:space="preserve">
<style type="text/css">
	.st0{fill:#0071BC;stroke:#B3B3B3;stroke-width:0.75;stroke-miterlimit:10;}
	.st1{fill:#FFFFFF;}
	.st2{font-family:'Dotum';}
	.st3{font-size:11px;}
</style>
<g>
	<rect x="0.4" y="0.4" class="st0" width="200" height="20"/>
	<g>
		<g>
			<g>
				<text transform="matrix(1 0 0 1 96.2743 14.2693)" class="st1 st2 st3">검색</text>
			</g>
		</g>
		<g>
			<path class="st1" d="M90.3,11.6h-0.5l-0.2-0.2c0.6-0.7,1-1.6,1-2.6c0-2.2-1.8-4.1-4.1-4.1c-2.2,0-4.1,1.8-4.1,4.1
				s1.8,4.1,4.1,4.1c1,0,1.9-0.4,2.6-1l0.2,0.2v0.5l3.1,3.1l0.9-0.9L90.3,11.6z M86.5,11.6c-1.6,0-2.8-1.3-2.8-2.8S85,6,86.5,6
				c1.6,0,2.8,1.3,2.8,2.8S88.1,11.6,86.5,11.6z"/>
		</g>
	</g>
</g>
</svg>
