<?xml version="1.0" encoding="utf-8"?>
<!-- Generator: Adobe Illustrator 25.4.1, SVG Export Plug-In . SVG Version: 6.00 Build 0)  -->
<svg version="1.1" id="레이어_1" xmlns="http://www.w3.org/2000/svg" xmlns:xlink="http://www.w3.org/1999/xlink" x="0px"
	 y="0px" viewBox="0 0 22 21.49" style="enable-background:new 0 0 22 21.49;" xml:space="preserve">
<style type="text/css">
	.st0{fill:#295799;}
	.st1{fill:#FFFFFF;}
</style>
<g>
	<path class="st0" d="M11.5,0h1.49v2c2.67,0.01,5.35-0.03,8.02,0.01c0.57-0.06,1.02,0.38,0.96,0.95c0.04,4.92-0.01,9.85,0.02,14.77
		c-0.02,0.5,0.05,1.06-0.24,1.51c-0.36,0.26-0.84,0.23-1.26,0.25c-2.5-0.01-5-0.01-7.5-0.01v2h-1.56c-3.8-0.69-7.62-1.33-11.43-2
		C0,13.66,0,7.83,0,2C3.83,1.33,7.67,0.68,11.5,0L11.5,0z"/>
	<path class="st1" d="M12.99,2.75h8.25v16h-8.25v-2h6.5v-1h-6.5V14.5h6.5v-1h-6.5v-1.25h6.5v-1h-6.5V10h6.5V9h-6.5V7.75h6.5v-1h-6.5
		V5.5h6.5v-1h-6.5V2.75z M5.16,7.17c0.47-0.03,0.95-0.05,1.42-0.07c0.33,1.69,0.67,3.37,1.03,5.05c0.28-1.73,0.6-3.46,0.9-5.2
		c0.5-0.02,1-0.04,1.5-0.07c-0.56,2.42-1.06,4.86-1.68,7.27c-0.42,0.22-1.04-0.01-1.54,0.02c-0.33-1.65-0.72-3.3-1.02-4.96
		c-0.29,1.61-0.67,3.21-1.01,4.82C4.3,14,3.81,13.97,3.33,13.94c-0.41-2.2-0.9-4.38-1.29-6.59C2.47,7.33,2.9,7.31,3.33,7.3
		c0.26,1.59,0.55,3.18,0.77,4.77C4.45,10.43,4.81,8.8,5.16,7.17L5.16,7.17z"/>
</g>
</svg>
