<?xml version="1.0" encoding="utf-8"?>
<!-- Generator: Adobe Illustrator 25.4.1, SVG Export Plug-In . SVG Version: 6.00 Build 0)  -->
<svg version="1.1" id="레이어_1" xmlns="http://www.w3.org/2000/svg" xmlns:xlink="http://www.w3.org/1999/xlink" x="0px"
	 y="0px" viewBox="0 0 70.75 20.75" style="enable-background:new 0 0 70.75 20.75;" xml:space="preserve">
<style type="text/css">
	.st0{fill:#0071BC;stroke:#B3B3B3;stroke-width:0.75;stroke-miterlimit:10;}
	.st1{fill:#FFFFFF;}
	.st2{font-family:'Dotum';}
	.st3{font-size:11px;}
</style>
<g>
	<rect x="0.38" y="0.38" class="st0" width="70" height="20"/>
	<g>
		<g>
			<g>
				<text transform="matrix(1 0 0 1 31.2738 14.2693)" class="st1 st2 st3">검색</text>
			</g>
		</g>
		<g>
			<path class="st1" d="M25.29,11.63h-0.49l-0.18-0.17c0.61-0.71,0.98-1.64,0.98-2.64c0-2.24-1.82-4.06-4.06-4.06
				s-4.06,1.82-4.06,4.06s1.82,4.06,4.06,4.06c1.01,0,1.93-0.37,2.64-0.98l0.17,0.18v0.49l3.12,3.12l0.93-0.93L25.29,11.63z
				 M21.54,11.63c-1.56,0-2.81-1.26-2.81-2.81S19.98,6,21.54,6s2.81,1.26,2.81,2.81S23.09,11.63,21.54,11.63z"/>
		</g>
	</g>
</g>
</svg>
