<?xml version="1.0" encoding="utf-8"?>
<!-- Generator: Adobe Illustrator 25.4.1, SVG Export Plug-In . SVG Version: 6.00 Build 0)  -->
<svg version="1.1" id="레이어_1" xmlns="http://www.w3.org/2000/svg" xmlns:xlink="http://www.w3.org/1999/xlink" x="0px"
	 y="0px" viewBox="0 0 42.03 42.03" style="enable-background:new 0 0 42.03 42.03;" xml:space="preserve">
<style type="text/css">
	.st0{fill:none;}
	.st1{fill:#B3B3B3;}
</style>
<g>
	<path class="st0" d="M0,0h42.03v42.03H0V0z"/>
	<path class="st1" d="M21.02,10.33c2.03,0,3.68,1.65,3.68,3.68s-1.65,3.68-3.68,3.68s-3.68-1.65-3.68-3.68S18.99,10.33,21.02,10.33
		 M21.02,26.1c5.2,0,10.68,2.56,10.68,3.68v1.93H10.33v-1.93C10.33,28.65,15.82,26.1,21.02,26.1 M21.02,7.01
		c-3.87,0-7.01,3.14-7.01,7.01s3.14,7.01,7.01,7.01s7.01-3.14,7.01-7.01S24.89,7.01,21.02,7.01z M21.02,22.77
		c-4.68,0-14.01,2.35-14.01,7.01v5.25h28.02v-5.25C35.03,25.12,25.69,22.77,21.02,22.77z"/>
</g>
</svg>
