<?xml version="1.0" encoding="utf-8"?>
<!-- Generator: Adobe Illustrator 25.4.1, SVG Export Plug-In . SVG Version: 6.00 Build 0)  -->
<svg version="1.1" id="레이어_1" xmlns="http://www.w3.org/2000/svg" xmlns:xlink="http://www.w3.org/1999/xlink" x="0px"
	 y="0px" viewBox="0 0 42.03 42.03" style="enable-background:new 0 0 42.03 42.03;" xml:space="preserve">
<style type="text/css">
	.st0{fill:none;}
	.st1{fill:#B3B3B3;}
</style>
<g>
	<g>
		<rect class="st0" width="42.03" height="42.03"/>
	</g>
	<path class="st1" d="M32.22,9.76c-2.97-2.98-6.92-4.62-11.14-4.62c-8.68,0-15.75,7.06-15.75,15.75c0,2.68,0.69,5.33,2,7.68L5,37.1
		l8.72-2.29c2.27,1.2,4.8,1.83,7.36,1.83c8.68,0,15.75-7.06,15.75-15.74C36.82,16.68,35.19,12.73,32.22,9.76z M11.17,28.01
		l-0.42-0.66c-1.22-1.95-1.86-4.18-1.86-6.47c0-6.71,5.46-12.18,12.18-12.18c3.25,0,6.31,1.27,8.6,3.58c2.3,2.3,3.56,5.36,3.56,8.62
		c0.01,3.23-1.24,6.28-3.53,8.57c-2.3,2.31-5.36,3.58-8.62,3.58c-2.18,0-4.32-0.59-6.2-1.7l-0.64-0.39l-4.17,1.1L11.17,28.01z"/>
</g>
</svg>
