<?xml version="1.0" encoding="utf-8"?>
<!-- Generator: Adobe Illustrator 25.4.1, SVG Export Plug-In . SVG Version: 6.00 Build 0)  -->
<svg version="1.1" id="레이어_1" xmlns="http://www.w3.org/2000/svg" xmlns:xlink="http://www.w3.org/1999/xlink" x="0px"
	 y="0px" viewBox="0 0 42.03 42.03" style="enable-background:new 0 0 42.03 42.03;" xml:space="preserve">
<style type="text/css">
	.st0{fill:none;}
	.st1{fill:#0071BC;}
</style>
<g>
	<g>
		<path class="st0" d="M0,0h42.03v42.03H0V0z"/>
		<path class="st1" d="M21.02,38.53c1.93,0,3.5-1.58,3.5-3.5h-7.01C17.51,36.96,19.09,38.53,21.02,38.53z M31.53,28.02v-8.76
			c0-5.38-2.85-9.88-7.88-11.07V7.01c0-1.45-1.17-2.63-2.63-2.63s-2.63,1.17-2.63,2.63V8.2c-5.01,1.19-7.88,5.67-7.88,11.07v8.76
			l-3.5,3.5v1.75h28.02v-1.75L31.53,28.02z M28.02,29.77H14.01V19.27c0-4.34,2.64-7.88,7.01-7.88s7.01,3.54,7.01,7.88V29.77z"/>
	</g>
</g>
</svg>
