<?xml version="1.0" encoding="utf-8"?>
<!-- Generator: Adobe Illustrator 25.4.1, SVG Export Plug-In . SVG Version: 6.00 Build 0)  -->
<svg version="1.1" id="레이어_1" xmlns="http://www.w3.org/2000/svg" xmlns:xlink="http://www.w3.org/1999/xlink" x="0px"
	 y="0px" viewBox="0 0 13 13" style="enable-background:new 0 0 13 13;" xml:space="preserve">
<style type="text/css">
	.st0{fill:none;}
	.st1{fill:#0071BC;}
</style>
<g>
	<path class="st0" d="M0,0h13v13H0V0z"/>
	<path class="st1" d="M7.58,1.08H3.25c-0.6,0-1.08,0.49-1.08,1.08l-0.01,8.67c0,0.6,0.48,1.08,1.08,1.08h6.51
		c0.6,0,1.08-0.49,1.08-1.08v-6.5L7.58,1.08z M9.75,10.83h-6.5V2.17h3.79v2.71h2.71V10.83z M4.33,8.13L5.1,8.89l0.86-0.86v2.25h1.08
		V8.04L7.9,8.9l0.76-0.77L6.51,5.96L4.33,8.13z"/>
</g>
</svg>
