<?xml version="1.0" encoding="utf-8"?>
<!-- Generator: Adobe Illustrator 25.4.1, SVG Export Plug-In . SVG Version: 6.00 Build 0)  -->
<svg version="1.1" id="레이어_1" xmlns="http://www.w3.org/2000/svg" xmlns:xlink="http://www.w3.org/1999/xlink" x="0px"
	 y="0px" viewBox="0 0 10.93 10.93" style="enable-background:new 0 0 10.93 10.93;" xml:space="preserve">
<style type="text/css">
	.st0{fill:#B3B3B3;}
</style>
<g>
	<path class="st0" d="M7.81,6.88H7.32L7.14,6.71c0.61-0.71,0.98-1.64,0.98-2.64C8.12,1.82,6.31,0,4.06,0S0,1.82,0,4.06
		s1.82,4.06,4.06,4.06c1.01,0,1.93-0.37,2.64-0.98l0.17,0.17v0.49L10,10.93L10.93,10L7.81,6.88z M4.06,6.88
		c-1.56,0-2.81-1.26-2.81-2.81s1.26-2.81,2.81-2.81s2.81,1.26,2.81,2.81S5.62,6.88,4.06,6.88z"/>
</g>
</svg>
