<?xml version="1.0" encoding="utf-8"?>
<!-- Generator: Adobe Illustrator 25.4.1, SVG Export Plug-In . SVG Version: 6.00 Build 0)  -->
<svg version="1.1" id="레이어_1" xmlns="http://www.w3.org/2000/svg" xmlns:xlink="http://www.w3.org/1999/xlink" x="0px"
	 y="0px" viewBox="0 0 60.41 64.79" style="enable-background:new 0 0 60.41 64.79;" xml:space="preserve">
<style type="text/css">
	.st0{fill:url(#SVGID_1_);}
	.st1{fill:url(#SVGID_00000178175154537763599460000016296717242816128929_);}
	.st2{fill:url(#SVGID_00000167365024230454749530000001617387302694091449_);}
	.st3{fill:url(#SVGID_00000180328420523470213910000015021909282982016447_);}
	.st4{fill:url(#SVGID_00000086669650344818103420000015220942932912281267_);}
	.st5{fill:url(#SVGID_00000021107747938087664030000000822608921759570589_);}
	.st6{fill:url(#SVGID_00000047036410344308418790000000802660441393960334_);}
	.st7{fill:url(#SVGID_00000095299780050945607680000005015670382777338242_);}
	.st8{fill:url(#SVGID_00000155836995950507723280000008253348489242494862_);}
	.st9{fill:url(#SVGID_00000033347459607536772700000001750512738529038783_);}
	.st10{fill:url(#SVGID_00000062878976532403771490000013039500866129656228_);}
	.st11{fill:url(#SVGID_00000064325340560374588950000008813535583113641100_);}
	.st12{fill:url(#SVGID_00000092419300471804973730000013238739815596247999_);}
	.st13{fill:url(#SVGID_00000106106131649060695120000009952584091863379641_);}
	.st14{fill:url(#SVGID_00000007427447696682027060000000068182945300668829_);}
	.st15{fill:#005480;}
</style>
<g>
	<g>
		
			<linearGradient id="SVGID_1_" gradientUnits="userSpaceOnUse" x1="-1417.4299" y1="-1896.4362" x2="-1389.6736" y2="-1896.4362" gradientTransform="matrix(0.604 -0.797 -0.797 -0.604 -635.6707 -2245.7629)">
			<stop  offset="0" style="stop-color:#00BBE3"/>
			<stop  offset="0.8301" style="stop-color:#006691"/>
			<stop  offset="1" style="stop-color:#005480"/>
		</linearGradient>
		<path class="st0" d="M15.76,15.1c-0.2-0.65-0.46-1.87-0.47-1.89c-0.01,0.02-0.03,0.04-0.04,0.06c-0.18,0.27-0.34,0.54-0.48,0.8
			c-0.01,0.01-0.01,0.02-0.02,0.03c-0.05,0.1-0.1,0.2-0.15,0.29c-0.03,0.07-0.06,0.13-0.09,0.19l0,0c-1,2.15-1.33,4.84-0.55,7.66
			c0.08,0.27,0.14,0.42,0.14,0.42c0.16,0.5,0.35,1.01,0.58,1.51c2.34,5.14,10.24,8.56,20.03,7.26c-1.23-1.75-2.02-3.74-2.64-5.77
			C23.5,24.52,17.32,20.2,15.76,15.1z"/>
		
			<linearGradient id="SVGID_00000036249902378865072190000002835788729233197988_" gradientUnits="userSpaceOnUse" x1="-1417.4296" y1="-1918.2981" x2="-1389.6725" y2="-1918.2981" gradientTransform="matrix(0.604 -0.797 -0.797 -0.604 -635.6707 -2245.7629)">
			<stop  offset="0" style="stop-color:#00BBE3"/>
			<stop  offset="0.8301" style="stop-color:#006691"/>
			<stop  offset="1" style="stop-color:#005480"/>
		</linearGradient>
		<path style="fill:url(#SVGID_00000036249902378865072190000002835788729233197988_);" d="M60.38,27.12
			c-0.37-2.98-3.55-4.63-6.17-4.27c-1.81,0.25-3.6,0.69-6,1.39c-4.06,1.2-7.95,1.72-11.54,1.73c0.81,1.56,1.9,3.02,3.41,4.31
			c1.57-0.47,3.17-1.04,4.78-1.76c2.06-0.92,3.61-1.52,5.21-1.96c2.31-0.64,5.35,0.46,6.04,3.09c0.3,1.16-0.03,2.39-0.83,3.48
			c3.22-1.15,4.4-3.23,4.4-3.23C60.23,29.04,60.5,28.09,60.38,27.12z"/>
		
			<radialGradient id="SVGID_00000114786349092768598300000004495518336019230890_" cx="-1402.0775" cy="-1919.2102" r="8.9239" gradientTransform="matrix(0.604 -0.797 -0.797 -0.604 -635.6707 -2245.7629)" gradientUnits="userSpaceOnUse">
			<stop  offset="0" style="stop-color:#F7EA7E"/>
			<stop  offset="1" style="stop-color:#E76E33"/>
		</radialGradient>
		<path style="fill:url(#SVGID_00000114786349092768598300000004495518336019230890_);" d="M59.61,29.98
			c-0.17,0.24-0.35,0.47-0.53,0.69c0.22-0.24,0.41-0.49,0.58-0.75L59.61,29.98z"/>
		
			<radialGradient id="SVGID_00000035517016232428838730000017070540731812805506_" cx="-1402.0784" cy="-1919.1338" r="8.9653" gradientTransform="matrix(0.604 -0.797 -0.797 -0.604 -635.6707 -2245.7629)" gradientUnits="userSpaceOnUse">
			<stop  offset="0" style="stop-color:#F7EA7E"/>
			<stop  offset="1" style="stop-color:#E76E33"/>
		</radialGradient>
		<path style="fill:url(#SVGID_00000035517016232428838730000017070540731812805506_);" d="M43.34,32.45
			c-1.26-0.65-2.34-1.38-3.27-2.17l0,0c0,0,0,0,0,0c-0.15,0.04-0.29,0.09-0.44,0.13c-0.01,0-0.02,0-0.03,0.01
			c-0.15,0.04-0.31,0.08-0.46,0.12c-0.63,0.16-1.52,0.38-2.46,0.57c-0.66,0.13-1.31,0.24-1.96,0.32l0,0
			c0.4,0.45,3.23,3.76,6.75,5.01c2.88,1.03,5.85,0.93,8.36,0.18l0.09-0.03c0,0,5.43-1.32,9.15-5.92
			C56.23,33.82,49.28,35.49,43.34,32.45z"/>
		
			<linearGradient id="SVGID_00000141438650273817054710000014092120746543741064_" gradientUnits="userSpaceOnUse" x1="-1415.4618" y1="-1893.5374" x2="-1389.5095" y2="-1893.5374" gradientTransform="matrix(0.604 -0.797 -0.797 -0.604 -635.6707 -2245.7629)">
			<stop  offset="0" style="stop-color:#EB008B"/>
			<stop  offset="0.0812" style="stop-color:#E00285"/>
			<stop  offset="0.5078" style="stop-color:#AA0C67"/>
			<stop  offset="0.8268" style="stop-color:#881255"/>
			<stop  offset="1" style="stop-color:#7B144E"/>
		</linearGradient>
		<path style="fill:url(#SVGID_00000141438650273817054710000014092120746543741064_);" d="M33.68,11.64c0,0-1.38-14.26-11.55-11.22
			c-1.37,0.41-2.69,1.24-3.8,2.39l-0.01,0.02c-8.52,8.39-4.27,19.74-4.27,19.74l0.04,0.11c-0.05-0.15-0.09-0.29-0.13-0.44
			c-0.32-1.06-0.98-3.99,0.35-7.2c0.06-0.16,0.13-0.31,0.2-0.46l0,0c0.03-0.06,0.06-0.13,0.09-0.19c0.05-0.1,0.1-0.2,0.15-0.29
			c0-0.01,0.01-0.02,0.02-0.03c0.14-0.27,0.3-0.54,0.48-0.8c0.01-0.02,0.02-0.04,0.04-0.06c0,0,0,0,0,0
			c0.89-1.32,2.06-2.35,3.35-2.93c8.75-3.94,11.68,8.68,11.68,8.68c0.6,2.14,1.07,4.45,1.75,6.71c1.47,0.2,3,0.3,4.59,0.3
			C34.37,21.54,34.34,16.27,33.68,11.64z"/>
		
			<linearGradient id="SVGID_00000140696197016330389310000017313252155044438935_" gradientUnits="userSpaceOnUse" x1="-1415.4689" y1="-1883.2465" x2="-1389.4923" y2="-1883.2465" gradientTransform="matrix(0.604 -0.797 -0.797 -0.604 -635.6707 -2245.7629)">
			<stop  offset="0" style="stop-color:#EB008B"/>
			<stop  offset="0.0812" style="stop-color:#E00285"/>
			<stop  offset="0.5078" style="stop-color:#AA0C67"/>
			<stop  offset="0.8268" style="stop-color:#881255"/>
			<stop  offset="1" style="stop-color:#7B144E"/>
		</linearGradient>
		<path style="fill:url(#SVGID_00000140696197016330389310000017313252155044438935_);" d="M15.26,13.27
			c-0.18,0.27-0.34,0.54-0.48,0.8C14.92,13.79,15.08,13.52,15.26,13.27z"/>
		
			<linearGradient id="SVGID_00000079467060314621917880000009664098123481139601_" gradientUnits="userSpaceOnUse" x1="-1415.4476" y1="-1883.192" x2="-1389.5382" y2="-1883.192" gradientTransform="matrix(0.604 -0.797 -0.797 -0.604 -635.6707 -2245.7629)">
			<stop  offset="0" style="stop-color:#EB008B"/>
			<stop  offset="0.0812" style="stop-color:#E00285"/>
			<stop  offset="0.5078" style="stop-color:#AA0C67"/>
			<stop  offset="0.8268" style="stop-color:#881255"/>
			<stop  offset="1" style="stop-color:#7B144E"/>
		</linearGradient>
		<path style="fill:url(#SVGID_00000079467060314621917880000009664098123481139601_);" d="M15.26,13.27
			c0.01-0.02,0.03-0.04,0.04-0.06c0,0,0,0,0,0C15.28,13.23,15.27,13.25,15.26,13.27z"/>
		
			<linearGradient id="SVGID_00000029766337616442109480000016122393128536314543_" gradientUnits="userSpaceOnUse" x1="-1417.4131" y1="-1883.192" x2="-1389.7012" y2="-1883.192" gradientTransform="matrix(0.604 -0.797 -0.797 -0.604 -635.6707 -2245.7629)">
			<stop  offset="0" style="stop-color:#00BBE3"/>
			<stop  offset="0.8301" style="stop-color:#006691"/>
			<stop  offset="1" style="stop-color:#005480"/>
		</linearGradient>
		<path style="fill:url(#SVGID_00000029766337616442109480000016122393128536314543_);" d="M15.26,13.27
			c0.01-0.02,0.03-0.04,0.04-0.06c0,0,0,0,0,0C15.28,13.23,15.27,13.25,15.26,13.27z"/>
		
			<linearGradient id="SVGID_00000143606254439118590640000002123714397562249108_" gradientUnits="userSpaceOnUse" x1="-1415.4611" y1="-1885.5597" x2="-1389.5094" y2="-1885.5597" gradientTransform="matrix(0.604 -0.797 -0.797 -0.604 -635.6707 -2245.7629)">
			<stop  offset="0" style="stop-color:#EB008B"/>
			<stop  offset="0.0812" style="stop-color:#E00285"/>
			<stop  offset="0.5078" style="stop-color:#AA0C67"/>
			<stop  offset="0.8268" style="stop-color:#881255"/>
			<stop  offset="1" style="stop-color:#7B144E"/>
		</linearGradient>
		<path style="fill:url(#SVGID_00000143606254439118590640000002123714397562249108_);" d="M13.97,22.25
			c-0.72-2.63-0.49-5.13,0.35-7.2C12.99,18.26,13.65,21.19,13.97,22.25z"/>
		
			<linearGradient id="SVGID_00000047746278565854508780000013105543026208408454_" gradientUnits="userSpaceOnUse" x1="-1417.4297" y1="-1885.5597" x2="-1389.6725" y2="-1885.5597" gradientTransform="matrix(0.604 -0.797 -0.797 -0.604 -635.6707 -2245.7629)">
			<stop  offset="0" style="stop-color:#00BBE3"/>
			<stop  offset="0.8301" style="stop-color:#006691"/>
			<stop  offset="1" style="stop-color:#005480"/>
		</linearGradient>
		<path style="fill:url(#SVGID_00000047746278565854508780000013105543026208408454_);" d="M13.97,22.25
			c-0.72-2.63-0.49-5.13,0.35-7.2C12.99,18.26,13.65,21.19,13.97,22.25z"/>
		
			<linearGradient id="SVGID_00000023978919233713986300000010144924345675529658_" gradientUnits="userSpaceOnUse" x1="-1415.4601" y1="-1883.463" x2="-1389.5127" y2="-1883.463" gradientTransform="matrix(0.604 -0.797 -0.797 -0.604 -635.6707 -2245.7629)">
			<stop  offset="0" style="stop-color:#EB008B"/>
			<stop  offset="0.0812" style="stop-color:#E00285"/>
			<stop  offset="0.5078" style="stop-color:#AA0C67"/>
			<stop  offset="0.8268" style="stop-color:#881255"/>
			<stop  offset="1" style="stop-color:#7B144E"/>
		</linearGradient>
		<path style="fill:url(#SVGID_00000023978919233713986300000010144924345675529658_);" d="M14.52,14.59
			c-0.07,0.15-0.14,0.3-0.2,0.46C14.38,14.9,14.44,14.74,14.52,14.59z"/>
		
			<linearGradient id="SVGID_00000089562955296400628690000004584705597740350389_" gradientUnits="userSpaceOnUse" x1="-1415.4601" y1="-1883.463" x2="-1389.5127" y2="-1883.463" gradientTransform="matrix(0.604 -0.797 -0.797 -0.604 -635.6707 -2245.7629)">
			<stop  offset="0" style="stop-color:#EB008B"/>
			<stop  offset="0.0812" style="stop-color:#E00285"/>
			<stop  offset="0.5078" style="stop-color:#AA0C67"/>
			<stop  offset="0.8268" style="stop-color:#881255"/>
			<stop  offset="1" style="stop-color:#7B144E"/>
		</linearGradient>
		<path style="fill:url(#SVGID_00000089562955296400628690000004584705597740350389_);" d="M14.52,14.59
			c-0.07,0.15-0.14,0.3-0.2,0.46C14.38,14.9,14.44,14.74,14.52,14.59z"/>
		
			<linearGradient id="SVGID_00000033345389971056449070000002795984876062827704_" gradientUnits="userSpaceOnUse" x1="-1417.4283" y1="-1883.463" x2="-1389.6759" y2="-1883.463" gradientTransform="matrix(0.604 -0.797 -0.797 -0.604 -635.6707 -2245.7629)">
			<stop  offset="0" style="stop-color:#00BBE3"/>
			<stop  offset="0.8301" style="stop-color:#006691"/>
			<stop  offset="1" style="stop-color:#005480"/>
		</linearGradient>
		<path style="fill:url(#SVGID_00000033345389971056449070000002795984876062827704_);" d="M14.52,14.59
			c-0.07,0.15-0.14,0.3-0.2,0.46C14.38,14.9,14.44,14.74,14.52,14.59z"/>
		
			<radialGradient id="SVGID_00000078753918713163875100000011526683062583970701_" cx="-1402.0776" cy="-1919.1338" r="8.9659" gradientTransform="matrix(0.604 -0.797 -0.797 -0.604 -635.6707 -2245.7629)" gradientUnits="userSpaceOnUse">
			<stop  offset="0" style="stop-color:#F7EA7E"/>
			<stop  offset="1" style="stop-color:#E76E33"/>
		</radialGradient>
		<path style="fill:url(#SVGID_00000078753918713163875100000011526683062583970701_);" d="M39.15,30.54
			c0.15-0.04,0.31-0.08,0.46-0.12c0.01,0,0.02,0,0.03-0.01c0.15-0.04,0.29-0.09,0.44-0.13c0,0,0,0,0,0l-5.35,1.16
			c0.65-0.09,1.3-0.2,1.96-0.32C37.63,30.92,38.52,30.71,39.15,30.54z"/>
		
			<linearGradient id="SVGID_00000179623644732400022070000017141983835011464070_" gradientUnits="userSpaceOnUse" x1="30.4792" y1="37.2647" x2="44.8912" y2="13.3555">
			<stop  offset="0" style="stop-color:#00BBE3"/>
			<stop  offset="0.483" style="stop-color:#1165A1"/>
			<stop  offset="1" style="stop-color:#250558"/>
		</linearGradient>
		<path style="fill:url(#SVGID_00000179623644732400022070000017141983835011464070_);" d="M40.08,30.28
			c-1.5-1.29-2.59-2.75-3.41-4.31c-1.59,0-3.13-0.11-4.59-0.3c0.62,2.03,1.41,4.02,2.64,5.77l0.01,0c0.65-0.09,1.3-0.2,1.96-0.32
			c0.94-0.19,1.83-0.41,2.46-0.57c0.15-0.04,0.31-0.08,0.46-0.12c0.01,0,0.02,0,0.03-0.01C39.78,30.37,39.93,30.33,40.08,30.28
			C40.08,30.28,40.08,30.28,40.08,30.28z"/>
	</g>
	<g>
		<path class="st15" d="M0.83,59.98h12.19l0.5-0.02c1.07,0,1.94-0.87,1.94-1.94c0-0.59-0.19-1.13-0.6-1.48l-0.19-0.13L3.33,49.77
			L3.07,49.6C1.22,48.41,0,46.33,0,43.97c0-3.7,3-6.69,6.69-6.69l1.39-0.03h10.97v4.78H8.02l-0.62,0.03c-1.07,0-1.94,0.87-1.94,1.94
			c0,0.59,0.26,1.12,0.68,1.47l0.23,0.2l11.33,6.64l0.26,0.19c1.79,1.2,2.96,3.24,2.96,5.55c0,3.69-3,6.69-6.69,6.69l-0.09,0.04
			l-0.23-0.01l-1.07,0H0.83V59.98z"/>
		<path class="st15" d="M29.23,37.24v20.4c0,1.28-1,2.28-2.23,2.28l-4.61,0v4.84h4.22l1.39,0c3.69,0,6.69-3.02,6.69-6.72V37.24
			H29.23z"/>
	</g>
</g>
</svg>
